<mxfile host="Electron" modified="2025-08-15T05:51:32.869Z" agent="Mozilla/5.0 (Windows NT 10.0; Win64; x64) AppleWebKit/537.36 (KHTML, like Gecko) draw.io/23.0.2 Chrome/120.0.6099.109 Electron/28.1.0 Safari/537.36" etag="dRIydX_5ucl4fE7lCzJR" version="23.0.2" type="device">
  <diagram name="Page-1" id="2ca16b54-16f6-2749-3443-fa8db7711227">
    <mxGraphModel dx="1594" dy="824" grid="0" gridSize="10" guides="1" tooltips="1" connect="1" arrows="1" fold="1" page="1" pageScale="1" pageWidth="3300" pageHeight="2339" background="none" math="0" shadow="0">
      <root>
        <mxCell id="0" />
        <mxCell id="1" parent="0" />
        <mxCell id="zMzXejcNQfmOnHdcIRxO-3" value="&lt;div style=&quot;box-sizing: border-box; width: 100%; background-image: initial; background-position: initial; background-size: initial; background-repeat: initial; background-attachment: initial; background-origin: initial; background-clip: initial; padding: 2px;&quot;&gt;&lt;b&gt;&lt;u&gt;Baskets&lt;/u&gt;&lt;/b&gt;&lt;table style=&quot;font-size: 1em; width: 100%;&quot; cellpadding=&quot;2&quot; cellspacing=&quot;0&quot;&gt;&lt;tbody&gt;&lt;tr&gt;&lt;td&gt;PK&lt;br&gt;&lt;br&gt;&lt;br&gt;FK&lt;br&gt;&lt;br&gt;&lt;br&gt;&lt;/td&gt;&lt;td&gt;Id&lt;br&gt;ClientSecret&lt;br&gt;PaymentIntentId&lt;br&gt;CouponId&lt;br&gt;CreatedOn&lt;br&gt;UpdatedOn&lt;br&gt;&lt;/td&gt;&lt;/tr&gt;&lt;/tbody&gt;&lt;/table&gt;&lt;/div&gt;" style="verticalAlign=top;align=left;overflow=fill;html=1;rounded=0;shadow=1;comic=0;labelBackgroundColor=default;strokeWidth=1;fontFamily=Verdana;fontSize=12;labelBorderColor=default;" parent="1" vertex="1">
          <mxGeometry x="460" y="113" width="138" height="117" as="geometry" />
        </mxCell>
        <mxCell id="iMH3HlL2T1r4OsGhHwBE-7" style="edgeStyle=orthogonalEdgeStyle;rounded=0;orthogonalLoop=1;jettySize=auto;html=1;startArrow=ERoneToMany;startFill=0;endArrow=ERone;endFill=0;exitX=0;exitY=0.5;exitDx=0;exitDy=0;" parent="1" source="iMH3HlL2T1r4OsGhHwBE-1" target="zMzXejcNQfmOnHdcIRxO-3" edge="1">
          <mxGeometry relative="1" as="geometry" />
        </mxCell>
        <mxCell id="iMH3HlL2T1r4OsGhHwBE-1" value="&lt;div style=&quot;box-sizing: border-box; width: 100%; background-image: initial; background-position: initial; background-size: initial; background-repeat: initial; background-attachment: initial; background-origin: initial; background-clip: initial; padding: 2px;&quot;&gt;&lt;b&gt;&lt;u&gt;BasketItems&lt;/u&gt;&lt;/b&gt;&lt;table style=&quot;font-size: 1em; width: 100%;&quot; cellpadding=&quot;2&quot; cellspacing=&quot;0&quot;&gt;&lt;tbody&gt;&lt;tr&gt;&lt;td&gt;PK&lt;br&gt;PK&lt;br&gt;&lt;br&gt;&lt;br&gt;&lt;br&gt;&lt;br&gt;&lt;/td&gt;&lt;td&gt;BasketId&lt;br&gt;ProductId&lt;br&gt;UnitPrice&lt;br&gt;Quantity&lt;br&gt;CreatedOn&lt;br&gt;UpdatedOn&lt;br&gt;&lt;/td&gt;&lt;/tr&gt;&lt;/tbody&gt;&lt;/table&gt;&lt;/div&gt;" style="verticalAlign=top;align=left;overflow=fill;html=1;rounded=0;shadow=1;comic=0;labelBackgroundColor=default;strokeWidth=1;fontFamily=Verdana;fontSize=12;labelBorderColor=default;" parent="1" vertex="1">
          <mxGeometry x="585" y="280.25" width="118" height="113.5" as="geometry" />
        </mxCell>
        <mxCell id="iMH3HlL2T1r4OsGhHwBE-2" value="&lt;div style=&quot;box-sizing: border-box; width: 100%; background-image: initial; background-position: initial; background-size: initial; background-repeat: initial; background-attachment: initial; background-origin: initial; background-clip: initial; padding: 2px;&quot;&gt;&lt;b&gt;&lt;u&gt;Brands&lt;/u&gt;&lt;/b&gt;&lt;table style=&quot;font-size: 1em; width: 100%;&quot; cellpadding=&quot;2&quot; cellspacing=&quot;0&quot;&gt;&lt;tbody&gt;&lt;tr&gt;&lt;td&gt;PK&lt;br&gt;&lt;br&gt;&lt;br&gt;&lt;br&gt;&lt;/td&gt;&lt;td&gt;Id&lt;br&gt;Name&lt;br&gt;CreatedOn&lt;br&gt;UpdatedOn&lt;br&gt;&lt;/td&gt;&lt;/tr&gt;&lt;/tbody&gt;&lt;/table&gt;&lt;/div&gt;" style="verticalAlign=top;align=left;overflow=fill;html=1;rounded=0;shadow=1;comic=0;labelBackgroundColor=default;strokeWidth=1;fontFamily=Verdana;fontSize=12;labelBorderColor=default;" parent="1" vertex="1">
          <mxGeometry x="675" y="108" width="108" height="88" as="geometry" />
        </mxCell>
        <mxCell id="iMH3HlL2T1r4OsGhHwBE-3" value="&lt;div style=&quot;box-sizing: border-box; width: 100%; background-image: initial; background-position: initial; background-size: initial; background-repeat: initial; background-attachment: initial; background-origin: initial; background-clip: initial; padding: 2px;&quot;&gt;&lt;b&gt;&lt;u&gt;ProductTypes&lt;/u&gt;&lt;/b&gt;&lt;table style=&quot;font-size: 1em; width: 100%;&quot; cellpadding=&quot;2&quot; cellspacing=&quot;0&quot;&gt;&lt;tbody&gt;&lt;tr&gt;&lt;td&gt;PK&lt;br&gt;&lt;br&gt;&lt;br&gt;&lt;br&gt;&lt;/td&gt;&lt;td&gt;Id&lt;br&gt;Name&lt;br&gt;CreatedOn&lt;br&gt;UpdatedOn&lt;br&gt;&lt;/td&gt;&lt;/tr&gt;&lt;/tbody&gt;&lt;/table&gt;&lt;/div&gt;" style="verticalAlign=top;align=left;overflow=fill;html=1;rounded=0;shadow=1;comic=0;labelBackgroundColor=default;strokeWidth=1;fontFamily=Verdana;fontSize=12;labelBorderColor=default;" parent="1" vertex="1">
          <mxGeometry x="974" y="136" width="108" height="85" as="geometry" />
        </mxCell>
        <mxCell id="iMH3HlL2T1r4OsGhHwBE-4" value="&lt;div style=&quot;box-sizing: border-box; width: 100%; background-image: initial; background-position: initial; background-size: initial; background-repeat: initial; background-attachment: initial; background-origin: initial; background-clip: initial; padding: 2px;&quot;&gt;&lt;b&gt;&lt;u&gt;OrderStatuses&lt;/u&gt;&lt;/b&gt;&lt;table style=&quot;font-size: 1em; width: 100%;&quot; cellpadding=&quot;2&quot; cellspacing=&quot;0&quot;&gt;&lt;tbody&gt;&lt;tr&gt;&lt;td&gt;PK&lt;br&gt;&lt;br&gt;&lt;br&gt;&lt;br&gt;&lt;/td&gt;&lt;td&gt;Id&lt;br&gt;Name&lt;br&gt;CreatedOn&lt;br&gt;UpdatedOn&lt;br&gt;&lt;/td&gt;&lt;/tr&gt;&lt;/tbody&gt;&lt;/table&gt;&lt;/div&gt;" style="verticalAlign=top;align=left;overflow=fill;html=1;rounded=0;shadow=1;comic=0;labelBackgroundColor=default;strokeWidth=1;fontFamily=Verdana;fontSize=12;labelBorderColor=default;" parent="1" vertex="1">
          <mxGeometry x="304" y="635" width="108" height="87" as="geometry" />
        </mxCell>
        <mxCell id="iMH3HlL2T1r4OsGhHwBE-5" value="&lt;div style=&quot;box-sizing: border-box; width: 100%; background-image: initial; background-position: initial; background-size: initial; background-repeat: initial; background-attachment: initial; background-origin: initial; background-clip: initial; padding: 2px;&quot;&gt;&lt;b&gt;&lt;u&gt;Products&lt;/u&gt;&lt;/b&gt;&lt;table style=&quot;font-size: 1em; width: 100%;&quot; cellpadding=&quot;2&quot; cellspacing=&quot;0&quot;&gt;&lt;tbody&gt;&lt;tr&gt;&lt;td&gt;PK&lt;br&gt;&lt;br&gt;&lt;br&gt;&lt;br&gt;FK&lt;br&gt;FK&lt;br&gt;FK&lt;br&gt;&lt;br&gt;&lt;br&gt;&lt;br&gt;&lt;br&gt;&lt;/td&gt;&lt;td&gt;Id&lt;br&gt;Name&lt;br&gt;Description&lt;br&gt;Price&lt;br&gt;ProductTypeId&lt;br&gt;BrandId&lt;br&gt;PhotoId&lt;br&gt;QuantityInStock&lt;br&gt;CreatedOn&lt;br&gt;UpdatedOn&lt;br&gt;&lt;br&gt;&lt;/td&gt;&lt;/tr&gt;&lt;/tbody&gt;&lt;/table&gt;&lt;/div&gt;" style="verticalAlign=top;align=left;overflow=fill;html=1;rounded=0;shadow=1;comic=0;labelBackgroundColor=default;strokeWidth=1;fontFamily=Verdana;fontSize=12;labelBorderColor=default;" parent="1" vertex="1">
          <mxGeometry x="790" y="247" width="137" height="180" as="geometry" />
        </mxCell>
        <mxCell id="iMH3HlL2T1r4OsGhHwBE-6" value="&lt;div style=&quot;box-sizing: border-box; width: 100%; background-image: initial; background-position: initial; background-size: initial; background-repeat: initial; background-attachment: initial; background-origin: initial; background-clip: initial; padding: 2px;&quot;&gt;&lt;b&gt;&lt;u&gt;Photos&lt;/u&gt;&lt;/b&gt;&lt;table style=&quot;font-size: 1em; width: 100%;&quot; cellpadding=&quot;2&quot; cellspacing=&quot;0&quot;&gt;&lt;tbody&gt;&lt;tr&gt;&lt;td&gt;PK&lt;br&gt;&lt;br&gt;&lt;br&gt;&lt;br&gt;&lt;br&gt;&lt;br&gt;&lt;/td&gt;&lt;td&gt;Id&lt;br&gt;FileName&lt;br&gt;PublicUrl&lt;br&gt;PublicId&lt;br&gt;CreatedOn&lt;br&gt;&lt;br&gt;&lt;/td&gt;&lt;/tr&gt;&lt;/tbody&gt;&lt;/table&gt;&lt;/div&gt;" style="verticalAlign=top;align=left;overflow=fill;html=1;rounded=0;shadow=1;comic=0;labelBackgroundColor=default;strokeWidth=1;fontFamily=Verdana;fontSize=12;labelBorderColor=default;" parent="1" vertex="1">
          <mxGeometry x="991" y="288.5" width="108" height="97" as="geometry" />
        </mxCell>
        <mxCell id="iMH3HlL2T1r4OsGhHwBE-9" style="edgeStyle=orthogonalEdgeStyle;rounded=0;orthogonalLoop=1;jettySize=auto;html=1;startArrow=ERoneToMany;startFill=0;endArrow=ERone;endFill=0;entryX=0.5;entryY=1;entryDx=0;entryDy=0;exitX=0;exitY=0.25;exitDx=0;exitDy=0;" parent="1" source="iMH3HlL2T1r4OsGhHwBE-5" target="iMH3HlL2T1r4OsGhHwBE-2" edge="1">
          <mxGeometry relative="1" as="geometry">
            <mxPoint x="845" y="415.51" as="sourcePoint" />
            <mxPoint x="740" y="305.51" as="targetPoint" />
          </mxGeometry>
        </mxCell>
        <mxCell id="iMH3HlL2T1r4OsGhHwBE-10" style="edgeStyle=orthogonalEdgeStyle;rounded=0;orthogonalLoop=1;jettySize=auto;html=1;startArrow=ERoneToMany;startFill=0;endArrow=ERone;endFill=0;entryX=0;entryY=0.5;entryDx=0;entryDy=0;exitX=0.5;exitY=0;exitDx=0;exitDy=0;" parent="1" source="iMH3HlL2T1r4OsGhHwBE-5" target="iMH3HlL2T1r4OsGhHwBE-3" edge="1">
          <mxGeometry relative="1" as="geometry">
            <mxPoint x="1104" y="397" as="sourcePoint" />
            <mxPoint x="999" y="287" as="targetPoint" />
          </mxGeometry>
        </mxCell>
        <mxCell id="iMH3HlL2T1r4OsGhHwBE-11" style="edgeStyle=orthogonalEdgeStyle;rounded=0;orthogonalLoop=1;jettySize=auto;html=1;startArrow=ERoneToMany;startFill=0;endArrow=ERone;endFill=0;entryX=0;entryY=0.5;entryDx=0;entryDy=0;exitX=1;exitY=0.5;exitDx=0;exitDy=0;" parent="1" source="iMH3HlL2T1r4OsGhHwBE-5" target="iMH3HlL2T1r4OsGhHwBE-6" edge="1">
          <mxGeometry relative="1" as="geometry">
            <mxPoint x="1147" y="559.51" as="sourcePoint" />
            <mxPoint x="1042" y="449.51" as="targetPoint" />
          </mxGeometry>
        </mxCell>
        <mxCell id="iMH3HlL2T1r4OsGhHwBE-12" style="edgeStyle=orthogonalEdgeStyle;rounded=0;orthogonalLoop=1;jettySize=auto;html=1;startArrow=ERoneToMany;startFill=0;endArrow=ERone;endFill=0;entryX=0;entryY=0.5;entryDx=0;entryDy=0;exitX=1;exitY=0.5;exitDx=0;exitDy=0;" parent="1" source="iMH3HlL2T1r4OsGhHwBE-1" target="iMH3HlL2T1r4OsGhHwBE-5" edge="1">
          <mxGeometry relative="1" as="geometry">
            <mxPoint x="855" y="507" as="sourcePoint" />
            <mxPoint x="780" y="405" as="targetPoint" />
          </mxGeometry>
        </mxCell>
        <mxCell id="iMH3HlL2T1r4OsGhHwBE-13" value="&lt;div style=&quot;box-sizing: border-box; width: 100%; background-image: initial; background-position: initial; background-size: initial; background-repeat: initial; background-attachment: initial; background-origin: initial; background-clip: initial; padding: 2px;&quot;&gt;&lt;b&gt;&lt;u&gt;Order&lt;/u&gt;&lt;/b&gt;&lt;table style=&quot;font-size: 1em; width: 100%;&quot; cellpadding=&quot;2&quot; cellspacing=&quot;0&quot;&gt;&lt;tbody&gt;&lt;tr&gt;&lt;td&gt;PK&lt;br&gt;&lt;br&gt;&lt;br&gt;&lt;br&gt;&lt;br&gt;&lt;br&gt;&lt;br&gt;FK&lt;br&gt;&lt;br&gt;&lt;br&gt;&lt;br&gt;&lt;br&gt;&lt;br&gt;&lt;br&gt;&lt;br&gt;&lt;/td&gt;&lt;td&gt;Id&lt;br&gt;BuyerEmail&lt;br&gt;OrderDate&lt;br&gt;Subtotal&lt;br&gt;DeliveryFee&lt;br&gt;Discount&lt;br&gt;PaymentIntentId&lt;br&gt;OrderStatusId&lt;br&gt;Name&lt;br&gt;Line1&lt;br&gt;Line2&lt;br&gt;City&lt;br&gt;State&lt;br&gt;PostalCode&lt;br&gt;Country&lt;br&gt;&lt;/td&gt;&lt;/tr&gt;&lt;/tbody&gt;&lt;/table&gt;&lt;/div&gt;" style="verticalAlign=top;align=left;overflow=fill;html=1;rounded=0;shadow=1;comic=0;labelBackgroundColor=default;strokeWidth=1;fontFamily=Verdana;fontSize=12;labelBorderColor=default;" parent="1" vertex="1">
          <mxGeometry x="506" y="477" width="142" height="245" as="geometry" />
        </mxCell>
        <mxCell id="iMH3HlL2T1r4OsGhHwBE-14" value="&lt;div style=&quot;box-sizing: border-box; width: 100%; background-image: initial; background-position: initial; background-size: initial; background-repeat: initial; background-attachment: initial; background-origin: initial; background-clip: initial; padding: 2px;&quot;&gt;&lt;b&gt;&lt;u&gt;Coupon&lt;/u&gt;&lt;/b&gt;&lt;table style=&quot;font-size: 1em; width: 100%;&quot; cellpadding=&quot;2&quot; cellspacing=&quot;0&quot;&gt;&lt;tbody&gt;&lt;tr&gt;&lt;td&gt;PK&lt;br&gt;&lt;br&gt;&lt;br&gt;&lt;br&gt;&lt;br&gt;&lt;br&gt;&lt;br&gt;&lt;/td&gt;&lt;td&gt;Id&lt;br&gt;Name&lt;br&gt;AmountOff&lt;br&gt;PercentOff&lt;br&gt;PromotionCode&lt;br&gt;CreatedOn&lt;br&gt;UpdatedOn&lt;br&gt;&lt;/td&gt;&lt;/tr&gt;&lt;/tbody&gt;&lt;/table&gt;&lt;/div&gt;" style="verticalAlign=top;align=left;overflow=fill;html=1;rounded=0;shadow=1;comic=0;labelBackgroundColor=default;strokeWidth=1;fontFamily=Verdana;fontSize=12;labelBorderColor=default;" parent="1" vertex="1">
          <mxGeometry x="350" y="286" width="129" height="130" as="geometry" />
        </mxCell>
        <mxCell id="iMH3HlL2T1r4OsGhHwBE-15" style="edgeStyle=orthogonalEdgeStyle;rounded=0;orthogonalLoop=1;jettySize=auto;html=1;startArrow=ERoneToMany;startFill=0;endArrow=ERone;endFill=0;entryX=0.5;entryY=0;entryDx=0;entryDy=0;exitX=0;exitY=0.5;exitDx=0;exitDy=0;" parent="1" source="zMzXejcNQfmOnHdcIRxO-3" target="iMH3HlL2T1r4OsGhHwBE-14" edge="1">
          <mxGeometry relative="1" as="geometry">
            <mxPoint x="586" y="390" as="sourcePoint" />
            <mxPoint x="502" y="272" as="targetPoint" />
          </mxGeometry>
        </mxCell>
        <mxCell id="iMH3HlL2T1r4OsGhHwBE-16" style="edgeStyle=orthogonalEdgeStyle;rounded=0;orthogonalLoop=1;jettySize=auto;html=1;startArrow=ERoneToMany;startFill=0;endArrow=ERone;endFill=0;entryX=1;entryY=0.5;entryDx=0;entryDy=0;exitX=0;exitY=0.5;exitDx=0;exitDy=0;" parent="1" source="iMH3HlL2T1r4OsGhHwBE-13" target="iMH3HlL2T1r4OsGhHwBE-4" edge="1">
          <mxGeometry relative="1" as="geometry">
            <mxPoint x="500" y="764" as="sourcePoint" />
            <mxPoint x="417" y="646" as="targetPoint" />
          </mxGeometry>
        </mxCell>
        <mxCell id="iMH3HlL2T1r4OsGhHwBE-17" value="&lt;div style=&quot;box-sizing: border-box; width: 100%; background-image: initial; background-position: initial; background-size: initial; background-repeat: initial; background-attachment: initial; background-origin: initial; background-clip: initial; padding: 2px;&quot;&gt;&lt;b&gt;&lt;u&gt;OrderItem&lt;/u&gt;&lt;/b&gt;&lt;table style=&quot;font-size: 1em; width: 100%;&quot; cellpadding=&quot;2&quot; cellspacing=&quot;0&quot;&gt;&lt;tbody&gt;&lt;tr&gt;&lt;td&gt;PK&lt;br&gt;PK&lt;br&gt;&lt;/td&gt;&lt;td&gt;OrderId&lt;br&gt;ProductItemId&lt;br&gt;&lt;/td&gt;&lt;/tr&gt;&lt;/tbody&gt;&lt;/table&gt;&lt;/div&gt;" style="verticalAlign=top;align=left;overflow=fill;html=1;rounded=0;shadow=1;comic=0;labelBackgroundColor=default;strokeWidth=1;fontFamily=Verdana;fontSize=12;labelBorderColor=default;" parent="1" vertex="1">
          <mxGeometry x="708" y="505" width="125" height="67" as="geometry" />
        </mxCell>
        <mxCell id="iMH3HlL2T1r4OsGhHwBE-18" value="&lt;div style=&quot;box-sizing: border-box; width: 100%; background-image: initial; background-position: initial; background-size: initial; background-repeat: initial; background-attachment: initial; background-origin: initial; background-clip: initial; padding: 2px;&quot;&gt;&lt;b&gt;&lt;u&gt;ProductItem&lt;/u&gt;&lt;/b&gt;&lt;table style=&quot;font-size: 1em; width: 100%;&quot; cellpadding=&quot;2&quot; cellspacing=&quot;0&quot;&gt;&lt;tbody&gt;&lt;tr&gt;&lt;td&gt;PK&lt;br&gt;FK&lt;br&gt;&lt;br&gt;&lt;br&gt;&lt;br&gt;&lt;/td&gt;&lt;td&gt;Id&lt;br&gt;ProductId&lt;br&gt;Price&lt;br&gt;Quantity&lt;br&gt;CreatedOn&lt;br&gt;&lt;/td&gt;&lt;/tr&gt;&lt;/tbody&gt;&lt;/table&gt;&lt;/div&gt;" style="verticalAlign=top;align=left;overflow=fill;html=1;rounded=0;shadow=1;comic=0;labelBackgroundColor=default;strokeWidth=1;fontFamily=Verdana;fontSize=12;labelBorderColor=default;" parent="1" vertex="1">
          <mxGeometry x="891" y="490" width="125" height="97" as="geometry" />
        </mxCell>
        <mxCell id="iMH3HlL2T1r4OsGhHwBE-19" style="edgeStyle=orthogonalEdgeStyle;rounded=0;orthogonalLoop=1;jettySize=auto;html=1;startArrow=ERoneToMany;startFill=0;endArrow=ERone;endFill=0;entryX=0.5;entryY=1;entryDx=0;entryDy=0;exitX=0.5;exitY=0;exitDx=0;exitDy=0;" parent="1" source="iMH3HlL2T1r4OsGhHwBE-18" target="iMH3HlL2T1r4OsGhHwBE-5" edge="1">
          <mxGeometry relative="1" as="geometry">
            <mxPoint x="849" y="510" as="sourcePoint" />
            <mxPoint x="973" y="515" as="targetPoint" />
          </mxGeometry>
        </mxCell>
        <mxCell id="iMH3HlL2T1r4OsGhHwBE-20" style="edgeStyle=orthogonalEdgeStyle;rounded=0;orthogonalLoop=1;jettySize=auto;html=1;startArrow=ERoneToMany;startFill=0;endArrow=ERone;endFill=0;exitX=1;exitY=0.5;exitDx=0;exitDy=0;entryX=0;entryY=0.5;entryDx=0;entryDy=0;" parent="1" source="iMH3HlL2T1r4OsGhHwBE-17" target="iMH3HlL2T1r4OsGhHwBE-18" edge="1">
          <mxGeometry relative="1" as="geometry">
            <mxPoint x="858" y="544" as="sourcePoint" />
            <mxPoint x="837" y="574" as="targetPoint" />
          </mxGeometry>
        </mxCell>
        <mxCell id="iMH3HlL2T1r4OsGhHwBE-21" style="edgeStyle=orthogonalEdgeStyle;rounded=0;orthogonalLoop=1;jettySize=auto;html=1;startArrow=ERoneToMany;startFill=0;endArrow=ERone;endFill=0;entryX=1;entryY=0.25;entryDx=0;entryDy=0;exitX=0;exitY=0.5;exitDx=0;exitDy=0;" parent="1" source="iMH3HlL2T1r4OsGhHwBE-17" target="iMH3HlL2T1r4OsGhHwBE-13" edge="1">
          <mxGeometry relative="1" as="geometry">
            <mxPoint x="699" y="550" as="sourcePoint" />
            <mxPoint x="868" y="490" as="targetPoint" />
          </mxGeometry>
        </mxCell>
        <mxCell id="RMmtMDa-pnsl799h48tM-1" value="&lt;div style=&quot;box-sizing: border-box; width: 100%; background-image: initial; background-position: initial; background-size: initial; background-repeat: initial; background-attachment: initial; background-origin: initial; background-clip: initial; padding: 2px;&quot;&gt;&lt;b&gt;&lt;u&gt;Users&lt;/u&gt;&lt;/b&gt;&lt;table style=&quot;font-size: 1em; width: 100%;&quot; cellpadding=&quot;2&quot; cellspacing=&quot;0&quot;&gt;&lt;tbody&gt;&lt;tr&gt;&lt;td&gt;PK&lt;br&gt;&lt;br&gt;&lt;br&gt;&lt;br&gt;&lt;br&gt;&lt;br&gt;&lt;/td&gt;&lt;td&gt;Id&lt;br&gt;FirstName&lt;br&gt;Surname&lt;br&gt;AddressId&lt;br&gt;CreatedOn&lt;br&gt;UpdatedOn&lt;br&gt;&lt;/td&gt;&lt;/tr&gt;&lt;/tbody&gt;&lt;/table&gt;&lt;/div&gt;" style="verticalAlign=top;align=left;overflow=fill;html=1;rounded=0;shadow=1;comic=0;labelBackgroundColor=default;strokeWidth=1;fontFamily=Verdana;fontSize=12;labelBorderColor=default;" vertex="1" parent="1">
          <mxGeometry x="265" y="458" width="108" height="121" as="geometry" />
        </mxCell>
      </root>
    </mxGraphModel>
  </diagram>
</mxfile>
